<?xml version="1.0"?>
<svg width="725" height="225" xmlns="http://www.w3.org/2000/svg" xmlns:svg="http://www.w3.org/2000/svg">
 <g>
  <title>Layer 1</title>
  <path id="svg_1" d="m98.768997,211.947006c44.832993,-3.057999 81.728989,-34.944992 92.313004,-77.276993l0,86.813004c0,0 -6.285004,-25.674011 -33.761993,-18.461014c-17.101013,4.486023 -30.03302,11.919022 -58.55101,8.929001l0,-0.003998m92.313004,-127.122009l0,-86.824997c0,0 -6.285004,25.688999 -33.761993,18.473c-17.100983,-4.485 -30.03302,-11.921 -58.55101,-8.932l-0.002991,0.006c44.835983,3.055 81.732986,34.948998 92.315994,77.277997m-150.895,24.922005c0,-43.132004 30.314007,-79.179001 70.801006,-88.009001c-6.212006,-1.354 -12.670006,-2.081001 -19.290009,-2.081001c-49.757999,0 -90.085998,40.335001 -90.085998,90.089987c0,49.756004 40.327999,90.089989 90.085998,90.089989c6.620003,0 13.078003,-0.720001 19.290009,-2.076996c-40.487,-8.832993 -70.801006,-44.87999 -70.801006,-88.013" fill="#BF9C66"/>
  <path id="svg_2" d="m226.601013,82.640991c4.631989,-4.972023 10.963989,-7.447998 19.344971,-7.569c7.021027,-0.108002 13.121033,0.782005 15.80603,1.171997c0.64798,0.096008 1.08197,0.291023 1.108978,0.965004c0,0 -0.151001,10.122009 -0.151001,10.125c-0.023987,0.656006 -0.049988,1.636017 -0.821991,1.661011c-0.81601,0.027008 -0.851013,-0.88501 -0.875,-1.617004c-0.087006,-2.441986 -1.199005,-4.909996 -2.77301,-6.148987c-2.052979,-1.646034 -6.881989,-3.324013 -12.630005,-3.126015c-6.531982,0.230995 -11.187988,1.889015 -14.23999,5.070015c-4.78598,4.915985 -5.234009,11.123985 -5.048981,16.546997c0.396011,11.274994 9.26297,22.640991 23.422974,22.146004c4.063019,-0.139984 8.175018,-0.656013 10.726013,-3.457001c1.235992,-1.391022 1.937988,-4.136963 2.087006,-5.255981c0.079987,-0.537987 0.182007,-1.212044 0.890991,-1.235992c0.229004,-0.006989 0.757019,0.092995 0.796997,1.238953c0.019012,0.482056 -0.552979,6.045006 -1.122009,8.252007c-0.360992,1.304993 -0.521973,1.502991 -1.758972,2.105011c-2.696014,1.192993 -7.708008,1.755981 -11.495026,1.885994c-9.166992,0.321991 -15.971985,-1.649963 -21.403992,-6.198006c-5.326996,-4.451996 -8.17099,-10.762993 -8.449982,-18.754967c-0.176025,-5.008972 1.459991,-12.317993 6.585999,-17.804993m81.192017,40c2.881012,0 17.235992,-1.038994 17.235992,-21.48999c0,-15.907005 -9.854004,-23.146996 -19.014984,-23.146996c-11.256989,0 -18.25,7.898987 -18.25,20.605988c0.001007,14.147003 8.237,24.031013 20.028992,24.031013m-1.329987,-47.409004c15.121979,0 25.281006,9.699013 25.281006,24.131012c0,15.241966 -10.79303,26.304993 -25.664001,26.304993c-17.153015,0 -24.968994,-13.104004 -24.968994,-25.271004c0.000977,-9.734009 6.882996,-25.165009 25.35199,-25.165009m129.080017,4.028961c3.344971,0.118011 3.857971,1.274048 4.234985,2.123985c0.278015,0.678017 0.350037,1.676064 0.350037,2.155006c0,0.946007 0.447998,1.149017 0.814941,1.149017c0.541992,0 0.689026,-0.692024 0.746033,-0.955017c0.005981,-0.026985 0.825012,-7.209991 0.825012,-7.209991c0,-0.303009 -0.121033,-0.556 -0.325012,-0.72699c-0.159973,-0.123024 -0.343018,-0.172974 -0.507019,-0.142006c-1.848999,0.487984 -3.320007,0.453987 -3.333008,0.453987l-24.312988,0c-0.359009,0 -1.323975,0.006004 -1.323975,0.819c0,0.402008 0.343994,0.689056 0.815979,0.689056c0.544983,0 1.596008,0.067963 2.090027,0.187988c1.842957,0.381012 2.179993,1.131989 2.312988,3.342995c0,0.024017 0.003967,38.931 0.003967,39.047997c0,1.796997 -0.540955,2.810974 -1.604004,3.018013c-0.704956,0.15799 -1.391968,0.247009 -1.849976,0.247009c-0.562988,0 -0.815002,0.346977 -0.815002,0.692986c0,0.821991 0.963989,0.821991 1.328979,0.821991l24.483032,0c2.479004,0 3.22998,0 3.730957,-1.889977c0.334045,-1.379005 0.838013,-5.738014 0.838013,-6.242004c0,-0.470001 0,-1.261017 -0.688965,-1.261017c-0.655029,0 -0.779053,0.692017 -0.875,1.202026c-0.430054,2.531982 -1.156006,3.707001 -2.68103,4.346985c-1.588989,0.68399 -4.341003,0.68399 -5.984985,0.68399c-6.251038,0 -9.442017,-0.871979 -9.620972,-4.918983l0,-16.271057l11.791992,0.003021c2.427002,0 2.763977,1.161987 3.010986,2.009979c0.240967,0.771996 0.240967,1.369019 0.240967,2.01001c0,0.531036 0.296997,0.875 0.748047,0.875c0.68396,0 0.704987,-0.524963 0.735962,-1.187988l0.779053,-7.924011c0,-0.794952 -0.473999,-0.855995 -0.619019,-0.855995c-0.367004,0 -0.634033,0.302986 -1.031982,0.756996l-0.157043,0.176994c-0.478973,0.535004 -1.011993,0.787994 -2.757996,0.787994l-12.740967,0l0,-18.018982l11.346985,0l0,0.001976l0,0.000015zm27.281982,8.396996c0.14801,4.294014 2.661987,7.974007 9.801025,13.43399l2.942993,2.247009c5.80896,4.465004 7.64801,7.002991 7.790924,11.136993c0.143097,4.046997 -2.937988,8.050987 -8.702972,8.254997c-2.354004,0.084015 -9.248016,-0.286987 -10.595978,-5.870995c-0.209991,-0.854004 -0.238037,-1.718994 -0.257019,-2.281013c-0.011993,-0.35498 -0.03302,-1.001976 -0.784943,-0.977997c-0.692047,0.024017 -0.745026,0.865997 -0.77002,1.317017c0,0.015991 -0.079987,6.758003 -0.079987,6.758003c0.061951,1.707001 0.122925,2.17099 1.214996,2.658997l0.002991,0c2.442017,1.097992 6.565979,1.527008 9.973999,1.407013c3.846954,-0.137024 7.676971,-1.383034 10.256012,-3.120033c4.643921,-3.134979 5.545959,-7.642967 5.432037,-10.962982c-0.170044,-4.916016 -2.705078,-8.891998 -10.777039,-14.804016l-1.824066,-1.332001c-6.307953,-4.812988 -8.399933,-6.526001 -8.514984,-9.888c-0.151001,-4.222992 3.286011,-7.450989 7.774994,-7.608002c5.348999,-0.182976 8.75,1.947021 9.307037,2.894012c0.370941,0.609009 0.810059,2.264008 0.901978,3.023987c0.080078,0.494026 0.179962,1.101013 0.850983,1.075012c0.748016,-0.023987 0.71698,-1.178009 0.692047,-1.79599c0,0.009003 0.008972,-6.730011 0.008972,-6.730011c-0.027008,-0.757996 -0.685974,-0.733002 -0.968048,-0.723999c-0.496948,0.019012 -0.981903,-0.123985 -2.166962,-0.243988c-2.314941,-0.278023 -5.277008,-0.447998 -7.518921,-0.371002c-8.172089,0.284004 -14.238068,5.373024 -13.990051,12.502991m116.600983,34.983002c2.87793,0 17.244995,-1.039001 17.244995,-21.48999c0,-15.907013 -9.862,-23.147003 -19.02301,-23.147003c-11.259949,0 -18.252991,7.898994 -18.252991,20.605995c0,14.146996 8.236023,24.031006 20.031067,24.031006m-1.333008,-47.408997c15.125,0 25.283997,9.699005 25.283997,24.131004c0,15.241974 -10.795959,26.304993 -25.664001,26.304993c-17.156006,0 -24.968994,-13.103996 -24.968994,-25.270996c0.000977,-9.734016 6.882019,-25.165016 25.348999,-25.165016m49.156006,4.053017c-6.743042,4.232994 -10.761963,12.144989 -10.761963,21.156975c0,8.642029 4.130005,15.282013 7.669922,18.343025c5.218994,4.570007 12.317017,6.882996 21.104004,6.882996c3.960022,0 9.61499,-0.760986 13.628052,-2.896996c0.952026,-0.567993 0.97998,-0.896004 0.97998,-3.699982l0,-13.725014c0.119995,-2.143005 0.723999,-3.049011 2.226013,-3.326019c-0.002991,0 1.533997,-0.177002 1.533997,-0.177002c0.475952,0 0.822021,-0.293976 0.822021,-0.691986c0,-0.811005 -0.93103,-0.811005 -1.333008,-0.811005l-13.405029,0c-0.395996,0 -1.325989,0 -1.325989,0.811005c0,0.39801 0.346008,0.691986 0.825012,0.691986c0.574951,0 1.619995,0.059021 2.077026,0.173004c2.300964,0.631012 2.631958,1.063995 2.631958,6.254997l0,10.800018c0,0.931 -0.353027,1.548981 -1.115967,1.949982c-1.537048,0.897003 -4.669067,1.299011 -7.093018,1.299011c-6.341003,0 -11.869019,-2.257019 -16.437988,-6.712013c-2.301086,-2.235046 -6.653076,-8.730988 -6.653076,-17.38501c0,-6.886017 2.312988,-12.830986 6.180969,-15.899986c4.606018,-3.623993 9.170044,-4.125 13.411011,-4.125c7.86499,0 13.044067,2.516998 14.682983,5.015007c1.06604,1.694 1.259033,3.66098 1.286011,4.037964c0.059021,0.557037 0.137024,1.23999 0.748047,1.23999c0.87793,0 0.87793,-0.945953 0.87793,-1.639015c0,0.006012 0.442017,-9.012993 0.442017,-9.012993c0,-0.371002 -0.182922,-0.807983 -1.031921,-0.888c-1.700012,-0.070953 -3.890015,-0.342995 -5.106995,-0.626953c-0.554016,-0.121002 -5.435974,-1.09201 -9.798035,-1.09201c-4.919922,0 -11.304932,0.460999 -17.063965,4.053009m72.195007,23.853973l-6.22699,-17.644989l-5.791016,17.644989l12.018005,0zm-12.606018,2.899017c0,0 -4.807983,15.084961 -4.807983,15.90097c0,1.109039 1.289001,1.52301 2.099976,1.52301l0.646057,0c0.813049,0 0.937012,0.436981 0.937012,0.689034c0,0.312988 -0.164001,0.825989 -1.258972,0.825989l-12.140991,0c-0.455078,0 -1.516052,0 -1.516052,-0.825989c0,-0.401001 0.365051,-0.689034 0.88501,-0.689034c0,0 1.79303,-0.123016 1.80304,-0.126007c2.643921,-0.337013 3.866943,-2.372009 5.088989,-5.761024l14.44696,-39.659996c0.767029,-2.110992 1.070007,-2.681 1.690979,-2.681c0.597046,0 0.895996,0.437004 1.679077,2.473999c0,0 12.032959,31.334007 14.857971,38.374016c2.267029,5.61499 4.140991,6.721985 5.370972,7.071014c0.71405,0.246979 1.515015,0.363976 2.442017,0.363976c0.231018,0 0.937012,0 0.937012,0.692993c0,0.374016 -0.272034,0.753998 -1.577026,0.753998l-10.28595,0.003021c-1.18103,-0.056 -1.892029,-0.089996 -1.892029,-0.72702c0,-0.376976 0.243958,-0.648987 0.643005,-0.737976c0.067993,-0.022003 0.383972,-0.065002 0.383972,-0.649025c0,-0.185997 -0.080017,-0.478996 -0.187988,-0.751976c0,0 -6.122009,-16.062012 -6.122009,-16.064034l-14.122986,0l0,0.001015l-0.000061,0.000023l0,0.000023zm-152.757996,-26.436981c3.783997,0.067993 5.382996,0.582001 6.347961,2.027985c0.655029,1.004997 0.847046,1.438019 1.051025,1.896027c0.154053,0.413971 0.380005,0.840973 0.921021,0.840973c0.303955,0 0.627991,-0.228973 0.627991,-0.877991c0,-0.721008 -1.461975,-6.84201 -1.461975,-6.84201c-0.223022,-0.888 -0.387024,-1.468994 -0.88501,-1.28299l-0.804016,0.315002c-0.559998,0.200989 -0.967957,0.360985 -1.991028,0.441986l-31.445953,0c-1.027039,-0.080994 -1.435059,-0.240997 -1.994019,-0.441986l-0.805054,-0.315002c-0.496948,-0.187988 -0.654968,0.395996 -0.883972,1.279999c0,0 -1.461975,6.123993 -1.461975,6.844971c0,0.646027 0.323975,0.877991 0.630005,0.877991c0.537964,0 0.770996,-0.427002 0.921997,-0.843964c0.199951,-0.455017 0.392944,-0.888 1.051025,-1.893036c0.961914,-1.445953 2.562988,-1.962982 6.347961,-2.027954l8.979034,-0.008995l0,26.475006c0,6.044014 0,11.263 -0.32196,13.919014c-0.266052,1.937988 -0.597107,3.031975 -1.592041,3.22998c-0.688965,0.150993 -1.379028,0.244019 -1.85199,0.244019c-0.601013,0 -0.813049,0.373985 -0.813049,0.688995c0,0.819 0.924072,0.819 1.320068,0.819l12.409973,0c0.395996,0 1.322998,0 1.322998,-0.819c0,-0.314995 -0.21405,-0.688995 -0.815979,-0.688995c-0.463989,0 -1.153076,-0.093025 -1.833008,-0.244019c-1.005005,-0.198006 -1.330078,-1.248993 -1.611023,-3.237007c-0.312988,-2.648987 -0.312988,-7.867973 -0.312988,-13.911987l0,-26.475006l8.953979,0.008995zm-187.380035,-3.494019c-0.868988,0 -1.582977,0 -1.582977,0.758003c0,0.493988 0.283997,0.661011 0.815002,0.747986c0.352997,0.053009 0.686981,0.130005 1.91098,0.309021c1.710022,0.299988 2.177002,0.758003 2.241028,4.870003l0.018982,32.540009c0,5.799988 -0.330994,7.39801 -1.666016,7.778992c-0.828979,0.274017 -1.873962,0.369995 -2.521973,0.369995c-0.604004,0 -0.820007,0.362 -0.820007,0.681c0,0.819 0.863007,0.819 1.326996,0.819l12.837036,0c0.435974,0 1.458954,0 1.458954,-0.819c0,-0.330986 -0.219971,-0.681 -0.821991,-0.681c-0.169983,0 -1.730988,-0.018974 -3.10199,-0.373985c-1.388,-0.41098 -2.116974,-1.622993 -2.247009,-7.088989c0,0 -0.764008,-28.255005 -0.807983,-29.81601c4.597992,5.014977 31.959991,34.256004 32.645996,34.877983c3.633057,3.642006 4.223999,4.14801 4.845001,4.14801c0.800964,0 1.066956,-0.695007 1.066956,-4.826019l-0.062988,-37.245995c0,-3.802986 0.272034,-4.967995 2.103027,-5.345985c0.742004,-0.188019 1.162964,-0.188019 1.466003,-0.188019c0.739014,0 1.005005,-0.404999 1.005005,-0.747986c0,-0.754005 -0.942993,-0.754005 -1.450012,-0.754005l-12.012024,0c-0.589966,0 -1.578979,0 -1.578979,0.754005c0,0.494995 0.277039,0.747986 0.815002,0.747986c0.421021,0 1.874023,0.056 3.054993,0.309998c1.713013,0.448036 2.174011,1.633064 2.237976,5.744026l-0.032959,31.47998c-1.036011,-1.138985 -33.776978,-36.937981 -33.776978,-36.937981c-0.891022,-0.960999 -1.729004,-2.110962 -2.604004,-2.110962l-4.761017,0l-0.000031,-0.000031l0,-0.000031zm-47.544952,80.310974c-0.315002,-4.100006 -3.846008,-5.796997 -7.562988,-5.796997c-6.870026,0 -9.800995,5.605011 -9.800995,11.844986c0,6.307022 2.899994,11.854004 9.800995,11.854004c3.656982,0 7.153992,-2.174011 7.815979,-5.989014l-2.204987,0c-0.571991,2.836014 -3.088013,4.097031 -5.610992,4.097031c-5.830994,0 -7.593018,-5.292999 -7.593018,-9.960999c0,-4.663025 1.761993,-9.956024 7.593018,-9.956024c2.584991,0 4.97998,1.132019 5.357971,3.90802l2.205017,0l0,-0.001007l0,0zm11.535004,1.131989c5.042999,0 7.373962,4.223999 7.373962,8.38501c0,4.15799 -2.330963,8.381989 -7.373962,8.381989s-7.373993,-4.223999 -7.373993,-8.381989c0,-4.161987 2.330994,-8.38501 7.373993,-8.38501m5.326996,8.38501c0,-2.928009 -1.514984,-6.649963 -5.326996,-6.649963s-5.327026,3.722961 -5.327026,6.649963c0,2.931 1.515015,6.649994 5.327026,6.649994s5.326996,-3.720001 5.326996,-6.649994m8.725006,-1.196991c0,-2.838989 1.423004,-5.45401 4.539001,-5.45401c2.584991,0 4.161011,1.610046 4.161011,4.350037l0,10.212006l1.892975,0l0,-9.895996c0,-1.827026 -0.41098,-6.399017 -5.577972,-6.399017c-2.050018,0 -3.846008,0.915009 -4.949036,2.869019l-0.064972,-0.062012l-0.093048,-2.332001l-1.953979,0c0.063019,1.070007 0.161011,2.332001 0.161011,3.563019l0,12.258011l1.886017,0l0,-9.109009l-0.001038,0l0,-0.000031l0.000031,-0.000015zm18.024017,0c0,-2.838989 1.422974,-5.45401 4.539001,-5.45401c2.584991,0 4.161987,1.610046 4.161987,4.350037l0,10.212006l1.891968,0l0,-9.895996c0,-1.827026 -0.407959,-6.399017 -5.576965,-6.399017c-2.050018,0 -3.847015,0.915009 -4.950012,2.869019l-0.065002,-0.062012l-0.09198,-2.332001l-1.95401,0c0.061981,1.070007 0.160004,2.332001 0.160004,3.563019l0,12.258011l1.885986,0l0,-9.109009l-0.001007,0l0.000031,-0.000031l0,-0.000015zm17.051971,1.639038c0.063995,3.372986 1.603943,6.208008 5.480988,6.208008c2.237976,0 4.100037,-1.608002 4.572021,-3.781036l1.984985,0c-0.97998,3.781036 -3.338989,5.513 -7.153992,5.513c-4.728027,0 -6.934998,-4.063019 -6.934998,-8.382019c0,-4.284943 2.36499,-8.384979 7.062012,-8.384979c5.292969,0 7.216003,3.880005 7.216003,8.827026l-12.22702,0zm10.178009,-1.735046c-0.219971,-3.053986 -1.857971,-5.356964 -5.136017,-5.356964c-3.09198,0 -4.72699,2.584991 -4.978027,5.356964l10.114014,0l0.000031,0zm19.254028,-1.761963c-0.157043,-3.373047 -2.804047,-5.327026 -6.051056,-5.327026c-4.691956,0 -7.060944,4.09697 -7.060944,8.381989c0,4.321991 2.20697,8.381989 6.934998,8.381989c3.596008,0 5.672974,-1.793976 6.177002,-5.419952l-2.049988,0c-0.157043,2.175964 -1.854004,3.687988 -4.315002,3.687988c-2.900024,0 -4.697021,-3.057983 -4.697021,-6.681976c0,-3.593048 1.796997,-6.619049 4.697021,-6.619049c2.61499,0 4.157959,1.165039 4.315002,3.596039l2.049988,0zm6.143982,6.74295c0,2.143036 -0.223022,4.696014 3.783997,4.696014c0.631042,0 1.322998,-0.127014 1.923035,-0.284012l0,-1.639008c-0.50705,0.156982 -1.075012,0.190979 -1.642059,0.190979c-1.449982,0 -2.203979,-0.788971 -2.173981,-2.237976l0,-10.593018l3.593018,0l0,-1.730988l-3.593018,0l0,-4.188995l-1.891998,0.815979l0,3.373016l-3.147003,0l0,1.730988l3.147003,0l0,9.867004l0.001007,0l0,0l0,0.000015zm33.638,4.223022l0,-1.889008l-11.445007,0l0,-20.866013l-2.046997,0l0,22.755005l13.491974,0l0.000031,0.000015zm6.578979,-22.754974l-2.204041,0l0,2.362l2.204041,0l0,-2.362zm-0.153992,6.93399l-1.889038,0l0,15.820007l1.889038,0l0,-15.820007zm9.420044,15.820984l0,-14.088989l3.59198,0l0,-1.731018l-3.59198,0l0,-2.015991c-0.096008,-2.272003 -0.034058,-3.562012 2.557007,-3.562012c0.373962,0 0.781982,0.062012 1.161987,0.127014l0,-1.515015c-0.565002,-0.126953 -1.199036,-0.349976 -1.799011,-0.349976c-2.705017,0 -3.809998,1.232986 -3.809998,3.940979l0,3.373016l-3.185059,0l0,1.731018l3.185059,0l0,14.08902l1.890015,0l0,0.001953zm8.127991,-7.468964c0.063965,3.372986 1.606995,6.208008 5.484009,6.208008c2.237976,0 4.096985,-1.608002 4.56897,-3.781036l1.984985,0c-0.977966,3.781036 -3.338989,5.513 -7.153992,5.513c-4.723999,0 -6.932007,-4.063019 -6.932007,-8.382019c0,-4.284943 2.36499,-8.384979 7.062012,-8.384979c5.292969,0 7.216003,3.880005 7.216003,8.827026l-12.230042,0l0.000061,0zm10.18396,-1.735046c-0.221985,-3.053986 -1.859985,-5.356964 -5.138,-5.356964c-3.088989,0 -4.727997,2.584991 -4.980957,5.356964l10.118958,0zm24.257996,-1.950989c-0.190979,-2.584991 -1.515015,-3.403992 -3.75293,-3.403992c-1.985138,0 -3.624023,0.596985 -3.874023,2.742004l-2.015991,0c0.472961,-3.249023 2.895996,-4.47702 5.920959,-4.47702c3.499023,0 5.673035,1.606979 5.611023,5.231018l0,7.5c-0.031006,1.227997 0.095947,2.488983 0.156982,3.561981l-1.953979,0l-0.062012,-2.333984l-0.065002,0l-0.09198,0.220001c-0.696045,1.325989 -2.807983,2.587982 -4.950012,2.587982c-2.92804,0 -5.263,-1.796997 -5.263,-4.884979c0,-2.146011 1.292969,-3.784012 3.182007,-4.570023c2.110962,-0.915009 4.854004,-0.597015 7.156982,-0.723999l0,-1.449005l0.000977,0l0,0.000015zm-8.28894,6.743988c0,2.143036 1.638977,3.153046 3.562012,3.153046c4.12793,0 4.915924,-3.404022 4.727966,-6.715057c-2.682007,0.09201 -8.289978,-0.411987 -8.289978,3.562012m17.616913,-4.696991c0,-2.838989 1.419098,-5.45401 4.535034,-5.45401c2.584961,0 4.161987,1.610046 4.161987,4.350037l0,10.212006l1.889069,0l0,-9.895996c0,-1.827026 -0.40802,-6.399017 -5.574127,-6.399017c-2.052979,0 -3.846893,0.915009 -4.949951,2.869019l-0.062012,-0.062012l-0.096008,-2.332001l-1.954041,0c0.064117,1.070007 0.154053,2.332001 0.154053,3.563019l0,12.258011l1.895996,0l0,-9.109009l0,-0.000031l0,-0.000015zm27.009064,6.777039l-0.064026,-0.126038c-1.291992,1.889038 -3.216003,2.931 -5.419983,2.931c-4.695984,0 -6.491974,-4.477997 -6.491974,-8.445953c0,-4.100037 1.79599,-8.320038 6.491974,-8.320038c2.110962,0 4.315979,1.011017 5.419983,2.869019l0.064026,-0.067993l0,-9.263l1.890015,0l0,19.196014c0,1.227997 0.095947,2.485962 0.156982,3.55896l-1.953979,0l-0.093018,-2.33197zm-0.065002,-5.958038c0,-3.214996 -1.419006,-6.269989 -5.106995,-6.269989c-3.589966,0 -4.757996,3.335999 -4.757996,6.363037c0,2.93399 0.852966,6.934998 4.47699,6.934998c4.129028,-0.000031 5.388,-3.436066 5.388,-7.028046m29.360046,8.289001l0,-1.889008l-11.439087,0l0,-20.866013l-2.052979,0l0,22.755005l13.492004,0l0.000061,0l0,0.000015zm4.692993,-7.468964c0.063965,3.372986 1.606934,6.208008 5.484009,6.208008c2.237915,0 4.096924,-1.608002 4.56897,-3.781036l1.987976,0c-0.97998,3.781036 -3.342957,5.513 -7.156982,5.513c-4.727966,0 -6.932007,-4.063019 -6.932007,-8.382019c0,-4.284943 2.36499,-8.384979 7.058044,-8.384979c5.293945,0 7.219971,3.880005 7.219971,8.827026l-12.22998,0zm10.177979,-1.735046c-0.217041,-3.053986 -1.858032,-5.356964 -5.133057,-5.356964c-3.09198,0 -4.72699,2.584991 -4.97998,5.356964l10.113037,0zm16.010986,-1.950989c-0.186035,-2.584991 -1.511963,-3.403992 -3.747009,-3.403992c-1.984985,0 -3.629944,0.596985 -3.879944,2.742004l-2.016052,0c0.472961,-3.249023 2.895996,-4.47702 5.923035,-4.47702c3.496948,0 5.67395,1.606979 5.611938,5.231018l0,7.5c-0.033936,1.227997 0.092041,2.488983 0.157043,3.561981l-1.954041,0l-0.067993,-2.333984l-0.05896,0l-0.096008,0.220001c-0.692017,1.325989 -2.804016,2.587982 -4.945984,2.587982c-2.935059,0 -5.263062,-1.796997 -5.263062,-4.884979c0,-2.146011 1.29303,-3.784012 3.182007,-4.570023c2.11499,-0.915009 4.854004,-0.597015 7.154053,-0.723999l0,-1.449005l0.000977,0l0,0.000015zm-8.289001,6.743988c0,2.143036 1.642029,3.153046 3.562012,3.153046c4.130981,0 4.919006,-3.404022 4.727966,-6.715057c-2.677979,0.09201 -8.289978,-0.411987 -8.289978,3.562012m17.805969,-5.105011c0.064026,-3.027008 1.546021,-5.04599 4.350037,-5.04599c0.381042,0 0.788025,0.096039 1.165955,0.126984l0,-1.827011c-0.630981,-0.033997 -1.258972,-0.062988 -1.889954,-0.033997c-1.575989,0.064011 -2.994995,1.19902 -3.562012,2.808014l-0.064026,0l-0.092957,-2.332001l-1.954041,0c0.062012,1.069977 0.187988,2.332001 0.157043,3.562988l0,12.257996l1.889954,0l0,-9.516998l0,0.000015zm11.504028,0.40802c0,-2.838989 1.419006,-5.45401 4.539001,-5.45401c2.580994,0 4.15802,1.610046 4.15802,4.350037l0,10.212006l1.895996,0l0,-9.895996c0,-1.827026 -0.411987,-6.399017 -5.581055,-6.399017c-2.049927,0 -3.842957,0.915009 -4.945923,2.869019l-0.065063,-0.062012l-0.093018,-2.332001l-1.953979,0c0.062988,1.070007 0.155029,2.332001 0.155029,3.563019l0,12.258011l1.891968,0l0,-9.109009l-0.000977,0l0,-0.000031l0,-0.000015zm18.182983,-13.646973l-2.203979,0l0,2.362l2.203979,0l0,-2.362zm-0.158936,6.93399l-1.889038,0l0,15.820007l1.889038,0l0,-15.820007zm7.500977,6.712982c0,-2.838989 1.418945,-5.45401 4.541992,-5.45401c2.580933,0 4.154968,1.610046 4.154968,4.350037l0,10.212006l1.895996,0l0,-9.895996c0,-1.827026 -0.40802,-6.399017 -5.580994,-6.399017c-2.046997,0 -3.843018,0.915009 -4.945984,2.869019l-0.065002,-0.062012l-0.093018,-2.332001l-1.953979,0c0.062012,1.070007 0.157959,2.332001 0.157959,3.563019l0,12.258011l1.889038,0l0,-9.109009l-0.000977,0l0,-0.000031l0,-0.000015zm27.253967,-6.708984l1.954041,0c-0.063049,1.069 -0.158081,2.328003 -0.158081,3.554993l0,9.488007c0,3.151001 0.158081,6.458954 -3.338989,8.101013c-1.261963,0.596954 -2.110962,0.723999 -3.589966,0.723999c-2.872009,0 -6.276001,-0.97702 -6.276001,-4.254028l2.050964,0c0.218994,1.889008 2.454041,2.52002 4.472961,2.52002c2.459045,0 4.728088,-1.731049 4.79303,-4.381012l0,-2.965027l-0.064941,0c-0.915039,1.864014 -3.085022,2.965027 -5.13501,2.965027c-4.762024,0 -6.809021,-3.623016 -6.809021,-7.970978c0,-4.288025 1.922974,-8.258057 6.745972,-8.258057c2.301025,0 3.939087,1.101013 5.197021,2.928009l0.065002,-0.122986l0.092957,-2.32901l0.000061,0.000031zm-0.092957,7.559021c0,-3.026001 -1.673035,-6.300995 -5.074036,-6.300995c-3.438049,0 -4.888,3.462982 -4.888,6.363022c0,2.898987 1.481018,6.398987 4.949951,6.398987c3.624023,0.000977 5.012024,-3.372009 5.012024,-6.460999" fill="black"/>
 </g>

</svg>